<svg xmlns="http://www.w3.org/2000/svg" viewBox="0 0 141.73 141.73"><defs><style>.cls-1{fill:#FCFCFC;}.cls-2{fill:none;stroke:#3C3D3D;stroke-miterlimit:10;stroke-width:1px;}</style></defs><title>Plan de travail 1</title><g id="Calque_5" data-name="Calque 5"><rect class="cls-1" x="-1.70345" y="-1.2321" width="144.49074" height="144.92531"/></g><g id="Calque_2" data-name="Calque 2"><path class="cls-2" d="M35.16072,103.82362l1.48549-11.32153,4.67755-35.64945c.36773-2.80258.80273-6.00577,3.09449-7.66032,2.036-1.46991,4.386-1.83432,7.474-1.64526,2.27233.13912,5.48273.25208,8.12957.37812,3.3219.15819,6.3335.40963,10.557.66116a28.016,28.016,0,0,1,4.59926.56773,5.77946,5.77946,0,0,1,2.6596,1.42366,6.15115,6.15115,0,0,1,1.67242,4.00863v-.01669c.39457,4.00207.49384,4.5757.605,8.67747.147,5.42252.74536,10.71516.92938,16.13655.05976,1.7605.23623,5.21453.35111,6.73369.69427,9.18152.84618,15.8653,1.2879,25.01"/><path class="cls-2" d="M91.05294,110.02082c.07874-2.8662-.21159-6.45308-.33242-9.31782-.59914-14.2042-.94848-26.89677-1.40215-42.34654a16.36623,16.36623,0,0,1,.86581-5.76774,7.52507,7.52507,0,0,1,3.59135-4.42787A28.24843,28.24843,0,0,1,97.60761,46.933c2.4819-.71157,3.57875-1.09547,5.8273-1.75358a1.14449,1.14449,0,0,1,1.07617.15022,1.25237,1.25237,0,0,1,.29765.88956c.87473,16.89375,1.36831,34.16917,2.33143,51.076"/><path class="cls-2" d="M58.6413,49.17514l-.04462,41.37509"/><path class="cls-2" d="M67.16028,49.66524,64.52918,90.173"/><path class="cls-2" d="M105.11453,96.55729c-1.30106-16.8821-2.48313-32.47425-3.87333-48.85515"/><path class="cls-2" d="M62.18847,31.44081c-2.64808.78416-9.738,2.77676-13.00545,3.93484-.43407.15385,2.43561.38426,2.89521.4136,7.7757.49632,14.81339,1.00623,22.99927,1.27212a26.30523,26.30523,0,0,0,4.24206-.02343A124.44876,124.44876,0,0,0,94.869,32.83512c.28952-.16544-4.74638-.43923-5.39384-.46935-4.26739-.19848-6.83208-.35821-11.0767-.532-1.18955-.04871-4.197-.15847-5.38659-.20718-3.32948-.13633-5.95658-.136-9.28607-.27238a5.05282,5.05282,0,0,0-1.58423.0866Z"/><path class="cls-2" d="M33.94369,102.67276q3.12473-26.21326,6.27881-52.423a13.52417,13.52417,0,0,1,1.575-5.09743"/></g></svg>
